<?xml version="1.0" standalone="no"?>
<!DOCTYPE svg PUBLIC "-//W3C//DTD SVG 20010904//EN"
 "http://www.w3.org/TR/2001/REC-SVG-20010904/DTD/svg10.dtd">
<svg version="1.0" xmlns="http://www.w3.org/2000/svg"
 width="700.000000pt" height="700.000000pt" viewBox="0 0 700.000000 700.000000"
 preserveAspectRatio="xMidYMid meet">
<metadata>
Created by potrace 1.11, written by Peter Selinger 2001-2013
</metadata>
<g transform="translate(0.000000,700.000000) scale(0.100000,-0.100000)"
fill="#000000" stroke="none">
<path d="M454 6646 c-57 -26 -85 -58 -109 -119 -14 -38 -15 -326 -13 -3043 l3
-3001 30 -49 c23 -37 44 -56 84 -77 l55 -27 1553 0 1553 0 110 220 110 220
220 0 220 0 110 165 110 165 0 965 c0 765 -3 965 -12 965 -31 0 -178 -76 -357
-183 l-194 -117 -203 0 c-112 0 -204 -2 -204 -5 0 -3 72 -149 160 -325 l160
-320 52 0 51 0 -6 -83 c-4 -45 -14 -107 -23 -137 -56 -193 -214 -352 -409
-412 -97 -31 -243 -31 -340 -1 -243 76 -415 297 -426 548 l-4 80 48 3 47 3
160 319 c88 176 160 322 160 325 0 2 -93 6 -207 7 l-208 3 -3 218 -2 217 264
0 c146 0 300 5 343 11 271 36 500 172 673 399 119 156 260 260 428 314 l52 18
0 174 0 174 215 0 215 0 0 -175 c0 -159 2 -176 18 -181 139 -43 269 -120 364
-215 l59 -58 -3 652 c-3 609 -4 655 -22 704 l-19 52 -636 3 -636 3 -68 32
c-132 63 -225 188 -247 331 -7 42 -10 282 -8 644 l3 578 -45 17 c-42 17 -144
18 -1610 20 l-1565 3 -51 -24z m1296 -851 l0 -105 -105 0 -105 0 0 105 0 105
105 0 105 0 0 -105z m1420 0 l0 -105 -545 0 -545 0 0 105 0 105 545 0 545 0 0
-105z m-1210 -760 l0 -105 -485 0 -485 0 0 105 0 105 485 0 485 0 0 -105z
m1210 0 l0 -105 -490 0 -490 0 0 105 0 105 490 0 490 0 0 -105z m-1750 -770
l0 -105 -215 0 -215 0 0 105 0 105 215 0 215 0 0 -105z m1090 0 l0 -105 -430
0 -430 0 0 105 0 105 430 0 430 0 0 -105z m1640 0 l0 -105 -705 0 -705 0 0
105 0 105 705 0 705 0 0 -105z m-1750 -765 l0 -100 -705 0 -705 0 0 100 0 100
705 0 705 0 0 -100z m-980 -765 l0 -105 -215 0 -215 0 0 105 0 105 215 0 215
0 0 -105z m980 0 l0 -105 -325 0 -325 0 0 105 0 105 325 0 325 0 0 -105z m0
-770 l0 -105 -705 0 -705 0 0 105 0 105 705 0 705 0 0 -105z m-760 -760 l0
-105 -325 0 -325 0 0 105 0 105 325 0 325 0 0 -105z m1200 0 l0 -105 -490 0
-490 0 0 105 0 105 490 0 490 0 0 -105z"/>
<path d="M4920 2063 l0 -967 108 -163 107 -163 113 0 112 0 -2 1017 -3 1016
-64 40 c-176 107 -330 187 -362 187 -5 0 -9 -428 -9 -967z"/>
<path d="M3207 2342 c-70 -137 -127 -252 -127 -255 0 -4 115 -7 255 -7 140 0
255 2 255 5 0 7 -249 505 -253 505 -1 0 -60 -112 -130 -248z"/>
</g>
</svg>
