<svg id="flat" height="512" viewBox="0 0 512 512" width="512" xmlns="http://www.w3.org/2000/svg"><path d="m392 157.25v330.75h-352a15.99568 15.99568 0 0 1 -16-16v-432a15.99552 15.99552 0 0 1 16-16h218.75a32.06227 32.06227 0 0 1 22.62 9.37012l101.26 101.25976a32.06483 32.06483 0 0 1 9.37 22.62012z" fill="#548aff"/><g fill="#7dafff"><path d="m152 80h80v16h-80z"/><path d="m112 80h16v16h-16z"/><path d="m160 136h72v16h-72z"/><path d="m72 136h72v16h-72z"/><path d="m200 192h104v16h-104z"/><path d="m120 192h64v16h-64z"/><path d="m72 192h32v16h-32z"/><path d="m72 248h104v16h-104z"/><path d="m128 304h48v16h-48z"/><path d="m72 304h32v16h-32z"/><path d="m72 360h104v16h-104z"/><path d="m136 416h72v16h-72z"/><path d="m72 416h48v16h-48z"/><path d="m389.12 144h-85.12a32.00409 32.00409 0 0 1 -32-32v-85.12012a31.82355 31.82355 0 0 1 9.37 6.49024l101.26 101.25976a31.82867 31.82867 0 0 1 6.49 9.37012z"/></g><path d="m312 456 16-24v-232h32v232l16 24z" fill="#ffb401"/><path d="m268.42236 370.7334-24.42236-48.84473-24.42236 48.84473-14.31055-7.15528 27.57764-55.15624a7.99967 7.99967 0 0 1 7.15527-4.42188h8a7.99967 7.99967 0 0 1 7.15527 4.42188l27.57764 55.15624z" fill="#ffe28f"/><path d="m288 360h-88v4a44 44 0 0 0 44 44 44 44 0 0 0 44-44z" fill="#ffc431"/><path d="m468.42236 370.7334-24.42236-48.84473-24.42236 48.84473-14.31055-7.15528 27.57764-55.15624a7.99967 7.99967 0 0 1 7.15527-4.42188h8a7.99967 7.99967 0 0 1 7.15527 4.42188l27.57764 55.15624z" fill="#ffe28f"/><path d="m488 360h-88v4a44 44 0 0 0 44 44 44 44 0 0 0 44-44z" fill="#ffc431"/><path d="m373.71987 296.23192 26.28013 15.76808h88v-32h-35.18143a71.54545 71.54545 0 0 1 -58.21893-29.9605v-.00005a62.182 62.182 0 0 0 -50.59964-26.03945 62.182 62.182 0 0 0 -50.59957 26.03945v.00005a71.54545 71.54545 0 0 1 -58.219 29.9605h-35.18143v32h88l26.28013-15.76808a57.765 57.765 0 0 1 29.71987-8.23192 57.765 57.765 0 0 1 29.71987 8.23192z" fill="#ffc431"/><path d="m424 488-16-32h-128l-16 32z" fill="#ffc431"/><circle cx="344" cy="256" fill="#ffd873" r="16"/></svg>