<?xml version="1.0"?>
<svg xmlns="http://www.w3.org/2000/svg" xmlns:xlink="http://www.w3.org/1999/xlink" version="1.1" id="Capa_1" x="0px" y="0px" viewBox="0 0 512 512" style="enable-background:new 0 0 512 512;" xml:space="preserve" width="512px" height="512px" class=""><g><circle style="fill:#57A4FF" cx="256" cy="256" r="256" data-original="#57A4FF" class=""/><path style="fill:#2488FF" d="M211.093,264.952h-57.43c-8.411,0-15.293,6.882-15.293,15.293c0,4.139,1.666,7.907,4.361,10.667  l-37.468,76.392h-5.089c0.853,7.09,4.39,13.598,9.844,18.95l124.887,124.889C241.861,511.711,248.897,512,256,512  c132.825,0,242.023-101.157,254.759-230.635L324.981,95.587c-17.646-17.789-42.108-28.804-69.143-28.804l0,0  c-15.618,0-30.374,3.682-43.457,10.217c-1.701-0.308-3.449-0.477-5.239-0.477c-16.135,0-29.214,13.078-29.217,29.212  c-0.099,0.131-0.196,0.264-0.295,0.395c-16.375,2.489-28.924,16.628-28.924,33.697c0,9.288,3.72,17.704,9.746,23.853  c-0.001,0.165-0.007,0.329-0.007,0.495v40.904c0,4.962,2.089,9.459,5.431,12.656L211.093,264.952z" data-original="#2488FF" class=""/><polygon style="fill:#FFDA44" points="116.936,369.032 148.937,303.865 181.089,369.032 193.459,369.032 148.937,278.261   104.416,369.032 " data-original="#FFDA44" class=""/><polygon style="fill:#FFA733" points="148.937,278.261 148.937,303.865 181.089,369.032 193.459,369.032 " data-original="#FFA733" class=""/><path style="fill:#EE8700" d="M100.174,367.304c2.251,18.719,23.218,33.391,48.764,33.391s46.513-14.672,48.764-33.391H100.174z" data-original="#EE8700" class=""/><path style="fill:#CC7400" d="M148.937,367.304v33.391c25.545,0,46.513-14.672,48.764-33.391H148.937z" data-original="#CC7400" class=""/><polygon style="fill:#FFDA44" points="331.061,369.032 363.063,303.865 395.215,369.032 407.584,369.032 363.063,278.261   318.541,369.032 " data-original="#FFDA44" class=""/><polygon style="fill:#FFA733" points="363.063,278.261 363.063,303.865 395.215,369.032 407.584,369.032 " data-original="#FFA733" class=""/><path style="fill:#EE8700" d="M314.299,367.304c2.251,18.719,23.218,33.391,48.764,33.391c25.545,0,46.513-14.672,48.764-33.391  H314.299z" data-original="#EE8700" class=""/><path style="fill:#CC7400" d="M363.063,367.304v33.391c25.545,0,46.513-14.672,48.764-33.391H363.063z" data-original="#CC7400" class=""/><path style="fill:#FFFFFF" d="M301.923,269.744c-8.923-5.524-19.439-8.72-30.706-8.72h-30.299c-11.323,0-21.888,3.23-30.84,8.805  v73.976h91.845V269.744z" data-original="#FFFFFF" class=""/><path style="fill:#E1E3FA" d="M271.218,261.024H256v82.783h45.923v-74.063C292.999,264.22,282.484,261.024,271.218,261.024z" data-original="#E1E3FA" class=""/><path style="fill:#1D1D1F" d="M210.01,325.41v55.188v18.396c0,10.118,8.279,18.396,18.396,18.396  c10.118,0,18.396-8.279,18.396-18.396v-18.396h18.396v18.396c0,10.118,8.279,18.396,18.396,18.396s18.396-8.279,18.396-18.396  v-18.396V325.41L210.01,325.41L210.01,325.41z" data-original="#1D1D1F" class="" data-old_color="#1D1D1F"/><path d="M256,325.41v55.188h9.198v18.396c0,10.118,8.279,18.396,18.396,18.396c10.118,0,18.396-8.279,18.396-18.396v-18.396V325.41  L256,325.41L256,325.41z" data-original="#000000" class="" style="fill:#000000" data-old_color="#000000"/><path style="fill:#FFDAAA" d="M138.37,280.245L138.37,280.245c0-8.411,6.882-15.293,15.293-15.293h20.391v30.586h-20.391  C145.252,295.539,138.37,288.657,138.37,280.245z" data-original="#FFDAAA" class=""/><path style="fill:#FFC477" d="M373.63,280.222L373.63,280.222c0,8.425-6.893,15.317-15.317,15.317H337.89v-30.634h20.423  C366.737,264.904,373.63,271.797,373.63,280.222z" data-original="#FFC477" class=""/><polygon points="245.198,320 256,334.609 256,334.73 256,334.73 256,334.609 256,334.609 266.802,320 261.66,280.127   274.396,261.024 237.604,261.024 250.34,280.127 " data-original="#000000" class="" style="fill:#000000" data-old_color="#000000"/><path style="fill:#3E3D42" d="M292.122,264.952c-3.598-1.391-7.367-2.442-11.27-3.1L256,329.552l-24.852-67.7  c-3.903,0.657-7.671,1.709-11.27,3.1h-61.475v30.586h51.674v48.268v18.396h45.854h0.137h45.854v-18.396v-48.268h51.674v-30.586  L292.122,264.952L292.122,264.952z" data-original="#3E3D42" class=""/><path style="fill:#2D2D30" d="M301.922,362.203h-45.99v-32.464l24.92-67.886c3.903,0.657,7.671,1.709,11.27,3.1h61.474v30.586  h-51.674v48.268V362.203z" data-original="#2D2D30" class=""/><path style="fill:#1D1D1F" d="M255.837,66.783L255.837,66.783c-15.618,0-30.374,3.682-43.457,10.217  c-1.701-0.308-3.449-0.477-5.239-0.477c-16.135,0-29.214,13.078-29.217,29.212c-0.099,0.131-0.196,0.264-0.295,0.395  c-16.375,2.489-28.924,16.628-28.924,33.697c0,9.288,3.72,17.705,9.746,23.853c-0.001,0.165-0.007,0.329-0.007,0.495v38.957h194.783  v-38.957C353.229,110.386,309.625,66.783,255.837,66.783z" data-original="#1D1D1F" class="" data-old_color="#1D1D1F"/><path d="M255.837,66.783L255.837,66.783V203.13h97.391v-38.957C353.229,110.386,309.625,66.783,255.837,66.783z" data-original="#000000" class="" style="fill:#000000" data-old_color="#000000"/><path style="fill:#FFC477" d="M197.403,222.609h-21.426c-9.641,0-17.53-7.888-17.53-17.53v-3.896c0-9.641,7.888-17.53,17.53-17.53  h21.426V222.609z" data-original="#FFC477" class=""/><path style="fill:#FFB655" d="M314.272,222.609h21.426c9.641,0,17.53-7.888,17.53-17.53v-3.896c0-9.641-7.888-17.53-17.53-17.53  h-21.426V222.609z" data-original="#FFB655" class=""/><path style="fill:#FFDAAA" d="M288.149,153.265c-3.094-2.321-6.013-4.766-8.764-7.309c-27.779,18.04-60.465,27.957-94.315,27.957  h-16.344c-0.354,3.198-0.541,6.447-0.541,9.739c0,48.408,39.244,87.652,87.652,87.652s87.652-39.244,87.652-87.652  c0-3.321-0.191-6.597-0.551-9.822C324.992,173.105,305.483,166.265,288.149,153.265z" data-original="#FFDAAA" class=""/><path style="fill:#FFC477" d="M342.939,173.83c-17.947-0.726-37.456-7.565-54.79-20.566c-3.094-2.321-6.013-4.766-8.764-7.309  c-7.514,4.88-15.39,9.159-23.548,12.814v112.535c48.408,0,87.652-39.244,87.652-87.652  C343.49,180.331,343.298,177.055,342.939,173.83z" data-original="#FFC477" class=""/><circle cx="209.987" cy="196.23" r="12.58" data-original="#000000" class="" style="fill:#000000" data-old_color="#000000"/><circle cx="301.69" cy="196.23" r="12.58" data-original="#000000" class="" style="fill:#000000" data-old_color="#000000"/><path style="fill:#F072AE" d="M255.837,251.826c16.136,0,29.217-13.082,29.217-29.217H226.62  C226.62,238.744,239.702,251.826,255.837,251.826z" data-original="#F072AE" class=""/><path style="fill:#ED539D" d="M255.837,222.609v29.217c16.136,0,29.217-13.082,29.217-29.217H255.837z" data-original="#ED539D" class="active-path"/></g> </svg>
